<svg xmlns="http://www.w3.org/2000/svg" viewBox="0 0 714.79 226.69"><defs><style>.cls-1{fill:#fff;}.cls-2{fill:#374ea2;}.cls-3{fill:#ffcc4e;}.cls-4{fill:#ed1846;}.cls-5{fill:#1daa58;}</style></defs><g id="Layer_2" data-name="Layer 2"><g id="Layer_1-2" data-name="Layer 1"><rect class="cls-1" width="301.49" height="226.69" rx="24.99"/><path class="cls-2" d="M184,39.81l-38.55-.17,17-26.64H268.05L201.69,117a2.27,2.27,0,0,1-4.19-1.22l-.09-62.28A13.47,13.47,0,0,0,184,39.81Z"/><path class="cls-3" d="M288.26,187.1v15.22a11.37,11.37,0,0,1-11.37,11.37H192L209,187.1Z"/><polygon class="cls-4" points="288.26 62.84 288.26 187.1 208.96 187.1 288.26 62.84"/><path class="cls-5" d="M209,187.1,192,213.69H86.41l66.35-104A2.27,2.27,0,0,1,157,111v64.78a11.37,11.37,0,0,0,11.37,11.37Z"/><path class="cls-4" d="M50.11,39.65v4.7a4.55,4.55,0,0,1-4.55,4.55H33.72a4.55,4.55,0,0,1-4.55-4.55v-4.7H13V202.32a11.37,11.37,0,0,0,11.37,11.37H66.14V171.76a26.82,26.82,0,0,1,4.25-14.5L145.44,39.65Zm0,153.8A4.55,4.55,0,0,1,45.56,198H33.72a4.55,4.55,0,0,1-4.55-4.55V182.33a4.55,4.55,0,0,1,4.55-4.54H45.56a4.55,4.55,0,0,1,4.55,4.54Zm0-37.26a4.57,4.57,0,0,1-4.55,4.55H33.72a4.57,4.57,0,0,1-4.55-4.55V145.05a4.57,4.57,0,0,1,4.55-4.55H45.56a4.57,4.57,0,0,1,4.55,4.55Zm0-37.29a4.55,4.55,0,0,1-4.55,4.55H33.72a4.55,4.55,0,0,1-4.55-4.55V107.78a4.55,4.55,0,0,1,4.55-4.54H45.56a4.55,4.55,0,0,1,4.55,4.54Zm0-37.26a4.57,4.57,0,0,1-4.55,4.55H33.72a4.57,4.57,0,0,1-4.55-4.55V70.5A4.57,4.57,0,0,1,33.72,66H45.56a4.57,4.57,0,0,1,4.55,4.55Z"/><path class="cls-3" d="M162.43,13l-17,26.65H50.11V33.23a4.55,4.55,0,0,0-4.55-4.54H33.72a4.55,4.55,0,0,0-4.55,4.54v6.42H13V24.37A11.37,11.37,0,0,1,24.37,13Z"/><path class="cls-1" d="M386.59,13V63.17h-9.22L348.75,27.24V63.17h-9.6V13h9.15L376.92,48.8V13Z"/><path class="cls-1" d="M431.06,52.88H409.27l-3.72,10.29H395.39L414.5,13h11.3L445,63.17H434.79Zm-3-8.23-7.91-21.92-7.93,21.92Z"/><path class="cls-1" d="M480.21,21.65h-12.9V63.17h-9.7V21.65H444.67V13h35.54Z"/><path class="cls-1" d="M489.54,13h9.74V63.17h-9.74Z"/><path class="cls-1" d="M509.81,38.08c0-14.66,11.44-25.74,26.5-25.74S562.8,23.42,562.8,38.08s-11.43,25.75-26.49,25.75S509.81,52.75,509.81,38.08Zm43.22,0a16.73,16.73,0,0,0-33.45,0,16.73,16.73,0,1,0,33.45,0Z"/><path class="cls-1" d="M620.77,13V63.17h-9.21L582.94,27.24V63.17h-9.6V13h9.14L611.1,48.8V13Z"/><path class="cls-1" d="M665.25,52.88H643.46l-3.73,10.29H629.57L648.69,13H660l19.14,50.18H669Zm-3-8.23-7.91-21.92-7.94,21.92Z"/><path class="cls-1" d="M714.79,54.52v8.65H688V13h9.74V54.52Z"/><path class="cls-1" d="M335.69,113.34c0-14.66,11.4-25.74,26.49-25.74a27.08,27.08,0,0,1,19.21,7.87l-6.89,6.47a16.64,16.64,0,0,0-12.32-5.32,16.73,16.73,0,0,0,0,33.45,16.64,16.64,0,0,0,12.32-5.32l6.89,6.46a27,27,0,0,1-19.21,7.88C347.09,139.09,335.69,128,335.69,113.34Z"/><path class="cls-1" d="M392.16,88.25h9.73v50.18h-9.73Z"/><path class="cls-1" d="M464.8,88.25v50.18h-9.21L427,102.5v35.93h-9.61V88.25h9.15l28.62,35.81V88.25Z"/><path class="cls-1" d="M490,96.91V109.1h17.81v8.56H490v12.12h20.22v8.65H480.24V88.25h29.95v8.66Z"/><path class="cls-1" d="M578.23,88.25v50.18h-9.74V101.29L553.3,138.43h-5.06l-15.13-37.21v37.21h-9.73V88.25h13.2l14.17,34.34,14.31-34.34Z"/><path class="cls-1" d="M624.21,128.14H602.42l-3.72,10.29H588.54l19.11-50.18H619l19.14,50.18H627.93Zm-3-8.23L613.33,98l-7.94,21.92Z"/><path class="cls-1" d="M335.69,188.12c0-14.67,11.4-25.74,26.49-25.74a27,27,0,0,1,19.21,7.87l-6.89,6.47a16.65,16.65,0,0,0-12.32-5.33,16.73,16.73,0,0,0,0,33.46,16.65,16.65,0,0,0,12.32-5.33l6.89,6.47a27.08,27.08,0,0,1-19.21,7.87C347.09,213.86,335.69,202.79,335.69,188.12Z"/><path class="cls-1" d="M400.09,171.69v12.18h17.8v8.56h-17.8v12.12h20.22v8.66h-30V163h30v8.66Z"/><path class="cls-1" d="M479.12,163v50.18h-9.21l-28.62-35.94v35.94h-9.6V163h9.14l28.62,35.8V163Z"/><path class="cls-1" d="M523.59,171.69h-12.9v41.52H501V171.69H488.05V163h35.54Z"/><path class="cls-1" d="M542.32,171.69v12.18h17.8v8.56h-17.8v12.12h20.22v8.66h-30V163h30v8.66Z"/><path class="cls-1" d="M591.82,192h-8.17v21.2h-9.73V163h19.6c10.32,0,16,6.66,16,14.86a13.61,13.61,0,0,1-8.69,13L614,213.21H603.45Zm-8.17-7.81h9.22c4.67,0,7.18-2.39,7.18-6.4s-2.51-6.54-7.18-6.54h-9.22Z"/></g></g></svg>